<mxfile host="www.draw.io" modified="2020-01-03T13:49:50.066Z" agent="Mozilla/5.0 (Windows NT 10.0; Win64; x64) AppleWebKit/537.36 (KHTML, like Gecko) Chrome/79.0.3945.88 Safari/537.36" etag="tjpAuLnWafbccgpeta1h" version="12.4.8" type="github">
  <diagram id="wRPfoREpmixUg6re55_-" name="Page-1">
    <mxGraphModel dx="813" dy="441" grid="0" gridSize="10" guides="1" tooltips="1" connect="1" arrows="1" fold="1" page="1" pageScale="1" pageWidth="827" pageHeight="1169" math="0" shadow="0">
      <root>
        <mxCell id="0"/>
        <mxCell id="1" parent="0"/>
        <mxCell id="ow5GzaiBG2YinRflVp9T-1" value="sdshdr" style="rounded=0;whiteSpace=wrap;html=1;fillColor=#ffffff;" vertex="1" parent="1">
          <mxGeometry x="90" y="110" width="70" height="30" as="geometry"/>
        </mxCell>
        <mxCell id="ow5GzaiBG2YinRflVp9T-2" value="free&lt;br&gt;0" style="rounded=0;whiteSpace=wrap;html=1;fillColor=#ffffff;" vertex="1" parent="1">
          <mxGeometry x="90" y="140" width="70" height="30" as="geometry"/>
        </mxCell>
        <mxCell id="ow5GzaiBG2YinRflVp9T-3" value="len&lt;br&gt;5" style="rounded=0;whiteSpace=wrap;html=1;fillColor=#ffffff;" vertex="1" parent="1">
          <mxGeometry x="90" y="170" width="70" height="30" as="geometry"/>
        </mxCell>
        <mxCell id="ow5GzaiBG2YinRflVp9T-11" style="edgeStyle=orthogonalEdgeStyle;rounded=0;orthogonalLoop=1;jettySize=auto;html=1;entryX=0;entryY=0.5;entryDx=0;entryDy=0;" edge="1" parent="1" source="ow5GzaiBG2YinRflVp9T-4" target="ow5GzaiBG2YinRflVp9T-5">
          <mxGeometry relative="1" as="geometry"/>
        </mxCell>
        <mxCell id="ow5GzaiBG2YinRflVp9T-4" value="buf" style="rounded=0;whiteSpace=wrap;html=1;fillColor=#ffffff;" vertex="1" parent="1">
          <mxGeometry x="90" y="200" width="70" height="30" as="geometry"/>
        </mxCell>
        <mxCell id="ow5GzaiBG2YinRflVp9T-5" value="&#39;B&#39;" style="rounded=0;whiteSpace=wrap;html=1;fillColor=#ffffff;" vertex="1" parent="1">
          <mxGeometry x="213" y="200" width="40" height="30" as="geometry"/>
        </mxCell>
        <mxCell id="ow5GzaiBG2YinRflVp9T-6" value="&#39;i&#39;" style="rounded=0;whiteSpace=wrap;html=1;fillColor=#ffffff;" vertex="1" parent="1">
          <mxGeometry x="253" y="200" width="40" height="30" as="geometry"/>
        </mxCell>
        <mxCell id="ow5GzaiBG2YinRflVp9T-7" value="&#39;t&#39;" style="rounded=0;whiteSpace=wrap;html=1;fillColor=#ffffff;" vertex="1" parent="1">
          <mxGeometry x="293" y="200" width="40" height="30" as="geometry"/>
        </mxCell>
        <mxCell id="ow5GzaiBG2YinRflVp9T-8" value="&#39;b&#39;" style="rounded=0;whiteSpace=wrap;html=1;fillColor=#ffffff;" vertex="1" parent="1">
          <mxGeometry x="333" y="200" width="40" height="30" as="geometry"/>
        </mxCell>
        <mxCell id="ow5GzaiBG2YinRflVp9T-9" value="&#39;o&#39;" style="rounded=0;whiteSpace=wrap;html=1;fillColor=#ffffff;" vertex="1" parent="1">
          <mxGeometry x="373" y="200" width="40" height="30" as="geometry"/>
        </mxCell>
        <mxCell id="ow5GzaiBG2YinRflVp9T-10" value="&#39;\0&#39;" style="rounded=0;whiteSpace=wrap;html=1;fillColor=#ffffff;" vertex="1" parent="1">
          <mxGeometry x="413" y="200" width="40" height="30" as="geometry"/>
        </mxCell>
      </root>
    </mxGraphModel>
  </diagram>
</mxfile>
